<mxfile host="app.diagrams.net" agent="Mozilla/5.0 (Macintosh; Intel Mac OS X 10_15_7) AppleWebKit/537.36 (KHTML, like Gecko) Chrome/131.0.0.0 Safari/537.36" version="26.0.10">
  <diagram name="Страница — 1" id="rAcxXx5OQ_GRHU4Ex5gG">
    <mxGraphModel dx="1026" dy="650" grid="1" gridSize="10" guides="1" tooltips="1" connect="1" arrows="1" fold="1" page="1" pageScale="1" pageWidth="827" pageHeight="1169" math="0" shadow="0">
      <root>
        <mxCell id="0" />
        <mxCell id="1" parent="0" />
        <mxCell id="crnSlDX02r9EJmJ4Vwej-6" style="edgeStyle=orthogonalEdgeStyle;rounded=0;orthogonalLoop=1;jettySize=auto;html=1;entryX=0.25;entryY=0;entryDx=0;entryDy=0;" edge="1" parent="1" source="crnSlDX02r9EJmJ4Vwej-1" target="crnSlDX02r9EJmJ4Vwej-5">
          <mxGeometry relative="1" as="geometry">
            <Array as="points">
              <mxPoint x="170" y="150" />
              <mxPoint x="290" y="150" />
            </Array>
          </mxGeometry>
        </mxCell>
        <mxCell id="crnSlDX02r9EJmJ4Vwej-1" value="Источник 1" style="rounded=1;whiteSpace=wrap;html=1;" vertex="1" parent="1">
          <mxGeometry x="110" y="70" width="120" height="60" as="geometry" />
        </mxCell>
        <mxCell id="crnSlDX02r9EJmJ4Vwej-9" style="edgeStyle=orthogonalEdgeStyle;rounded=0;orthogonalLoop=1;jettySize=auto;html=1;entryX=0.75;entryY=0;entryDx=0;entryDy=0;" edge="1" parent="1" source="crnSlDX02r9EJmJ4Vwej-2" target="crnSlDX02r9EJmJ4Vwej-5">
          <mxGeometry relative="1" as="geometry">
            <Array as="points">
              <mxPoint x="510" y="150" />
              <mxPoint x="350" y="150" />
            </Array>
          </mxGeometry>
        </mxCell>
        <mxCell id="crnSlDX02r9EJmJ4Vwej-2" value="Источник N" style="rounded=1;whiteSpace=wrap;html=1;" vertex="1" parent="1">
          <mxGeometry x="450" y="70" width="120" height="60" as="geometry" />
        </mxCell>
        <mxCell id="crnSlDX02r9EJmJ4Vwej-8" style="edgeStyle=orthogonalEdgeStyle;rounded=0;orthogonalLoop=1;jettySize=auto;html=1;" edge="1" parent="1" source="crnSlDX02r9EJmJ4Vwej-3" target="crnSlDX02r9EJmJ4Vwej-5">
          <mxGeometry relative="1" as="geometry" />
        </mxCell>
        <mxCell id="crnSlDX02r9EJmJ4Vwej-3" value="Источник 2" style="rounded=1;whiteSpace=wrap;html=1;" vertex="1" parent="1">
          <mxGeometry x="260" y="70" width="120" height="60" as="geometry" />
        </mxCell>
        <mxCell id="crnSlDX02r9EJmJ4Vwej-4" value="..." style="text;html=1;align=center;verticalAlign=middle;whiteSpace=wrap;rounded=0;" vertex="1" parent="1">
          <mxGeometry x="384" y="85" width="60" height="30" as="geometry" />
        </mxCell>
        <mxCell id="crnSlDX02r9EJmJ4Vwej-11" style="edgeStyle=orthogonalEdgeStyle;rounded=0;orthogonalLoop=1;jettySize=auto;html=1;entryX=0.5;entryY=0;entryDx=0;entryDy=0;" edge="1" parent="1" source="crnSlDX02r9EJmJ4Vwej-5" target="crnSlDX02r9EJmJ4Vwej-10">
          <mxGeometry relative="1" as="geometry" />
        </mxCell>
        <mxCell id="crnSlDX02r9EJmJ4Vwej-5" value="Row Extractor" style="rounded=1;whiteSpace=wrap;html=1;" vertex="1" parent="1">
          <mxGeometry x="260" y="190" width="120" height="60" as="geometry" />
        </mxCell>
        <mxCell id="crnSlDX02r9EJmJ4Vwej-10" value="Row Transform" style="rounded=1;whiteSpace=wrap;html=1;" vertex="1" parent="1">
          <mxGeometry x="260" y="280" width="120" height="60" as="geometry" />
        </mxCell>
        <mxCell id="crnSlDX02r9EJmJ4Vwej-12" value="PostgresSQL" style="shape=cylinder3;whiteSpace=wrap;html=1;boundedLbl=1;backgroundOutline=1;size=15;" vertex="1" parent="1">
          <mxGeometry x="260" y="370" width="120" height="80" as="geometry" />
        </mxCell>
        <mxCell id="crnSlDX02r9EJmJ4Vwej-13" style="edgeStyle=orthogonalEdgeStyle;rounded=0;orthogonalLoop=1;jettySize=auto;html=1;entryX=0.5;entryY=0;entryDx=0;entryDy=0;entryPerimeter=0;" edge="1" parent="1" source="crnSlDX02r9EJmJ4Vwej-10" target="crnSlDX02r9EJmJ4Vwej-12">
          <mxGeometry relative="1" as="geometry" />
        </mxCell>
        <mxCell id="crnSlDX02r9EJmJ4Vwej-14" value="&lt;h1 style=&quot;margin-top: 0px;&quot;&gt;Вопрос&lt;/h1&gt;&lt;p&gt;Как вы планируете обеспечить отказоустойчивость и масштабируемость предложенной архитектуры при увеличении объёма данных и количества источников?&lt;/p&gt;" style="text;html=1;whiteSpace=wrap;overflow=hidden;rounded=0;" vertex="1" parent="1">
          <mxGeometry x="10" y="170" width="180" height="180" as="geometry" />
        </mxCell>
      </root>
    </mxGraphModel>
  </diagram>
</mxfile>
